{"asset":{"version":"2.0","generator":"THREE.JS GLTFExporter"},"scenes":[{"nodes":[0],"name":"AuxScene"}],"scene":0,"nodes":[{"mesh":0}],"meshes":[{"primitives":[{"mode":4,"attributes":{"POSITION":0,"NORMAL":1},"material":0}]}],"materials":[{"pbrMetallicRoughness":{"baseColorFactor":[0.5019607843137255,0.5019607843137255,0.5019607843137255,1],"metallicFactor":0,"roughnessFactor":1}}],"accessors":[{"bufferView":0,"componentType":5126,"count":144,"max":[3.700000047683716,1.0800000429153442,7.699999809265137],"min":[-3.700000047683716,0.07999999821186066,-7.699999809265137],"type":"VEC3"},{"bufferView":1,"componentType":5126,"count":144,"max":[0,1,0],"min":[0,1,0],"type":"VEC3"}],"bufferViews":[{"buffer":0,"byteOffset":0,"byteLength":1728,"byteStride":12,"target":34962},{"buffer":0,"byteOffset":1728,"byteLength":1728,"byteStride":12,"target":34962}],"buffers":[{"byteLength":3456,"uri":"data:application/octet-stream;base64,"}]}